<?xml version="1.0" encoding="UTF-8"?>
<svg id="Layer_2" data-name="Layer 2" xmlns="http://www.w3.org/2000/svg" viewBox="0 0 877 574">
  <defs>
    <style>
      .cls-1 {
        fill: blue;
      }
    </style>
  </defs>
  <g id="Layer_1-2" data-name="Layer 1">
    <g>
      <path d="M740.96,497.59h52.01c13.95,0,25.26-13.46,25.26-30.07v-62.81h-77.27v92.88Z"/>
      <rect x="629.96" y="404.71" width="77.27" height="92.88"/>
      <rect x="509.96" y="404.71" width="77.27" height="92.88"/>
      <rect x="400.96" y="404.71" width="77.27" height="92.88"/>
      <path d="M63.51,467.42c0,16.61,11.31,30.07,25.25,30.07h52.02v-92.89H63.51v62.82Z"/>
      <rect x="184.15" y="404.98" width="77.27" height="92.89"/>
      <rect x="290.96" y="404.71" width="77.27" height="92.88"/>
      <polygon points="566.06 279 368.06 179 368.06 377.5 368.08 377.5 368.06 378 566.06 279"/>
      <path d="M64.79,88.43v62.81h77.27V58.35h-52.02c-13.95,0-25.25,13.47-25.25,30.08Z"/>
      <rect x="185.42" y="57.97" width="77.28" height="92.89"/>
      <rect x="292.23" y="58.25" width="77.27" height="92.89"/>
      <rect x="402.23" y="58.25" width="77.27" height="92.89"/>
      <rect x="511.23" y="58.25" width="77.27" height="92.89"/>
      <rect x="631.23" y="58.25" width="77.27" height="92.89"/>
      <path d="M794.24,58.25h-52.02v92.89h77.27v-62.82c0-16.6-11.3-30.07-25.25-30.07Z"/>
    </g>
    <path class="cls-1" d="M767,0H110C49.25,0,0,58.65,0,131V443c0,72.35,49.25,131,110,131H767c60.75,0,110-58.65,110-131V131C877,58.65,827.75,0,767,0ZM402.17,58.25h77.27v92.89h-77.27V58.25Zm-34.17,319.25V179l198,100-198,99,.02-.5h-.02ZM292.17,58.25h77.27v92.89h-77.27V58.25ZM140.72,497.49h-52.02c-13.94,0-25.25-13.46-25.25-30.07v-62.82h77.27v92.89Zm1.28-346.25H64.73v-62.81c0-16.61,11.3-30.08,25.25-30.08h52.02v92.89Zm119.36,346.63h-77.27v-92.89h77.27v92.89Zm1.28-347.01h-77.28V57.97h77.28v92.89Zm105.53,346.73h-77.27v-92.88h77.27v92.88Zm110,0h-77.27v-92.88h77.27v92.88Zm109,0h-77.27v-92.88h77.27v92.88Zm1.27-346.45h-77.27V58.25h77.27v92.89Zm118.73,346.45h-77.27v-92.88h77.27v92.88Zm1.27-346.45h-77.27V58.25h77.27v92.89Zm109.73,316.38c0,16.61-11.31,30.07-25.26,30.07h-52.01v-92.88h77.27v62.81Zm1.27-316.38h-77.27V58.25h52.02c13.95,0,25.25,13.47,25.25,30.07v62.82Z"/>
  </g>
</svg>